<?xml version="1.0" encoding="utf-8"?>
<!-- Generator: Adobe Illustrator 16.0.0, SVG Export Plug-In . SVG Version: 6.00 Build 0)  -->
<!DOCTYPE svg PUBLIC "-//W3C//DTD SVG 1.1//EN" "http://www.w3.org/Graphics/SVG/1.1/DTD/svg11.dtd">
<svg version="1.1" id="Capa_1" xmlns="http://www.w3.org/2000/svg" xmlns:xlink="http://www.w3.org/1999/xlink" x="0px" y="0px"
	 width="91.913px" height="160.009px" viewBox="0 0 91.913 160.009" enable-background="new 0 0 91.913 160.009"
	 xml:space="preserve">
<g>
	<g id="XMLID_56_">
		<path id="XMLID_37_" fill="#F5B00E" d="M88.061-161.294c-8.974-8.974-20.735-13.46-32.497-13.46s-23.523,4.487-32.497,13.46
			c-2.098,2.098-3.947,4.35-5.555,6.717c6.397-9.323,17.127-15.442,29.289-15.442c19.606,0,35.501,15.894,35.501,35.501
			c0,6.299-1.648,12.211-4.525,17.34c-0.688,1.318-1.508,2.585-2.447,3.788c-1.772,2.39-3.839,4.546-6.144,6.422L55.564-93.346
			L40.793-78.575l14.771,14.771L88.061-96.3C106.008-114.248,106.008-143.346,88.061-161.294z"/>
		<path id="XMLID_34_" fill="#005799" d="M82.303-134.518c0-19.607-15.895-35.501-35.501-35.501
			c-12.162,0-22.892,6.119-29.289,15.442c-0.089,0.131-0.179,0.262-0.267,0.394c-0.266,0.398-0.526,0.801-0.776,1.21
			c-0.02,0.031-0.038,0.063-0.057,0.094C5.498-135.167,7.714-111.654,23.068-96.3l10.258,10.257l14.771-14.771l-10.258-10.258
			c-9.773-9.774-9.773-25.677,0-35.451c4.735-4.735,11.03-7.342,17.726-7.342s12.991,2.607,17.726,7.342
			c7.929,7.929,9.424,19.892,4.488,29.344C80.655-122.307,82.303-128.219,82.303-134.518z"/>
		<path id="XMLID_13_" fill="#F5B00E" d="M71.862-128.165c0,8.649-7.019,15.655-15.668,15.655s-15.668-7.006-15.668-15.655
			c0-2.531,0.6-4.918,1.67-7.032c2.57-5.127,7.88-8.637,13.999-8.637s11.416,3.496,13.985,8.61
			C71.262-133.097,71.862-130.709,71.862-128.165z"/>
	</g>
	<text id="XMLID_35_" transform="matrix(1 0 0 1 10.0396 -41.0044)"><tspan x="0" y="0" fill="#005799" font-family="'Arial-BoldMT'" font-size="21">CAMPUS</tspan><tspan x="-0.038" y="19.557" fill="#005799" font-family="'Arial-Black'" font-size="21.8573">FINDER</tspan></text>
</g>
<g>
	<g id="XMLID_22_">
		<path id="XMLID_25_" fill="#F5B00E" d="M78.452,13.46C69.479,4.487,57.717,0,45.956,0S22.433,4.487,13.459,13.46
			c-2.098,2.098-3.947,4.35-5.555,6.717c6.397-9.323,17.127-15.442,29.289-15.442c19.606,0,35.501,15.894,35.501,35.501
			c0,6.299-1.648,12.211-4.525,17.34c-0.688,1.318-1.508,2.585-2.447,3.788c-1.772,2.39-3.839,4.546-6.144,6.422L45.956,81.408
			L31.185,96.18l14.771,14.771l32.497-32.496C96.399,60.506,96.399,31.408,78.452,13.46z"/>
		<path id="XMLID_24_" fill="#005799" d="M72.694,40.236c0-19.607-15.895-35.501-35.501-35.501
			c-12.162,0-22.892,6.119-29.289,15.442c-0.089,0.131-0.179,0.262-0.267,0.394c-0.266,0.398-0.526,0.801-0.776,1.21
			c-0.02,0.031-0.038,0.063-0.057,0.094c-10.915,17.712-8.699,41.226,6.655,56.579l10.258,10.257L38.488,73.94L28.23,63.683
			c-9.773-9.774-9.773-25.677,0-35.451c4.735-4.735,11.03-7.342,17.726-7.342s12.991,2.607,17.726,7.342
			c7.929,7.929,9.424,19.892,4.488,29.344C71.046,52.447,72.694,46.536,72.694,40.236z"/>
		<path id="XMLID_23_" fill="#F5B00E" d="M62.253,46.589c0,8.649-7.019,15.655-15.668,15.655s-15.668-7.006-15.668-15.655
			c0-2.531,0.6-4.918,1.67-7.032c2.57-5.127,7.88-8.637,13.999-8.637S58,34.417,60.57,39.531
			C61.653,41.658,62.253,44.045,62.253,46.589z"/>
	</g>
	<text id="XMLID_17_" transform="matrix(1 0 0 1 0.4307 133.75)"><tspan x="0" y="0" fill="#005799" font-family="'Arial-BoldMT'" font-size="21">CAMPUS</tspan><tspan x="-0.038" y="19.557" fill="#F5B00E" font-family="'Arial-Black'" font-size="21.8573">FINDER</tspan></text>
</g>
<text id="XMLID_14_" transform="matrix(1 0 0 1 92.0283 316.5869)"><tspan x="0" y="0" fill="#005799" font-family="'Calibri'" font-size="22">CAMPUS</tspan><tspan x="78.858" y="0" fill="#F5B00E" font-family="'Calibri-Bold'" font-size="22">FINDER</tspan></text>
<text id="XMLID_20_" transform="matrix(1 0 0 1 298.9985 313.5869)"><tspan x="0" y="0" fill="#005799" font-family="'Calibri'" font-size="22">CAMPUS</tspan><tspan x="78.857" y="0" fill="#F5B00E" font-family="'Calibri-Bold'" font-size="22">FINDER</tspan></text>
<g>
	<text id="XMLID_6_" transform="matrix(1 0 0 1 317.6567 -10.2446)"><tspan x="0" y="0" fill="#F5B00E" font-family="'Arial-Black'" font-size="20">CAMPUS</tspan><tspan x="95.537" y="0" fill="#005799" font-family="'ArialMT'" font-size="20">FINDER</tspan></text>
	<g>
		<g id="XMLID_49_">
			<path id="XMLID_89_" fill="#005799" d="M342.712-61.294h-29.984l0,0c0,14.568,13.425,26.378,29.984,26.378h119.87l-28.984-26.378
				H342.712z"/>
			<g id="XMLID_76_">
				<path id="XMLID_82_" fill="#005799" d="M462.583-157.978h-119.87v26.377h149.853l0,0
					C492.565-146.168,479.141-157.978,462.583-157.978z"/>
				<path id="XMLID_87_" fill="#F5B00E" d="M462.583-131.6v96.684l0,0c16.559,0,29.982-11.81,29.982-26.378V-131.6H462.583z"/>
			</g>
		</g>
		<path id="XMLID_74_" fill="#F5B00E" d="M312.728-61.294h29.984v-96.683l0,0c-16.56,0-29.984,11.809-29.984,26.377V-61.294z"/>
		<ellipse id="XMLID_65_" fill="#005799" cx="374.257" cy="-97.771" rx="9.66" ry="8.498"/>
		<ellipse id="XMLID_77_" fill="#F5B00E" cx="406.739" cy="-97.771" rx="9.659" ry="8.498"/>
		<ellipse id="XMLID_91_" fill="#005799" cx="439.221" cy="-97.771" rx="9.66" ry="8.498"/>
	</g>
</g>
<g>
	<text id="XMLID_42_" transform="matrix(1 0 0 1 318.439 176.6631)"><tspan x="0" y="0" fill="#005799" font-family="'Calibri'" font-size="25.6769">CAMPUS</tspan><tspan x="92.038" y="0" fill="#F5B00E" font-family="'Calibri-Bold'" font-size="25.6769">FINDER</tspan></text>
	<g>
		<g id="XMLID_32_">
			<path id="XMLID_40_" fill="#005799" d="M343.497,122.613h-29.984l0,0c0,14.568,13.424,26.378,29.984,26.378h119.869
				l-28.984-26.378H343.497z"/>
			<g id="XMLID_33_">
				<path id="XMLID_38_" fill="#005799" d="M463.366,25.93H343.497v26.377h149.852l0,0C493.348,37.739,479.924,25.93,463.366,25.93z
					"/>
				<path id="XMLID_36_" fill="#F5B00E" d="M463.366,52.308v96.684l0,0c16.559,0,29.982-11.81,29.982-26.378V52.308H463.366z"/>
			</g>
		</g>
		<path id="XMLID_31_" fill="#F5B00E" d="M313.512,122.613h29.984V25.93l0,0c-16.561,0-29.984,11.809-29.984,26.377V122.613z"/>
		<ellipse id="XMLID_29_" fill="#005799" cx="375.042" cy="86.136" rx="9.66" ry="8.498"/>
		<ellipse id="XMLID_28_" fill="#F5B00E" cx="407.523" cy="86.136" rx="9.659" ry="8.498"/>
		<ellipse id="XMLID_26_" fill="#005799" cx="440.004" cy="86.136" rx="9.66" ry="8.498"/>
	</g>
</g>
<g>
	<g>
		<g>
			<g>
				<polygon fill="#ACC0BF" points="700.03,-144.872 952.331,-146.515 1080.395,-88.44 768.868,-88.44 				"/>
				<path fill="#32A1D5" d="M742.188-110.747c2.566-0.719,75.063,5.506,75.063,5.506l94.865,3.748l5.354,6.088l-92.834-3.885
					l-34.846-3.146l-27.463-2.434l-12.935,0.232L742.188-110.747z"/>
				<polygon fill="#52AF77" points="878.325,-133.651 859.44,-127.052 871.78,-124.628 936.739,-123.528 942.538,-119.769 
					978.692,-121.065 967.362,-126.245 				"/>
				<g id="XMLID_62_">
					<path id="XMLID_1_" fill="#FAFAFA" d="M779.75-145.192l5.979,0.287c1.027,0.051,1.832-0.068,1.818-0.266l-0.012-0.08
						L779.75-145.192z M1078.106-88.44h2.289l-4.693-2.129c0.223,0.197,0.436,0.389,0.623,0.57
						C1076.872-89.485,1077.459-88.966,1078.106-88.44z M710.77-141.669c1.061,0.855,2.324,1.865,3.617,2.908
						c-1.875,0.027-3.893,0.051-5.967,0.08l1.645,1.365c2.102-0.023,4.113-0.051,6.025-0.078c3.008,2.422,5.887,4.746,6.752,5.451
						l-6.226,0.072l0.542,0.449l6.543-0.074l11.688,3.348l-8.288,1.117c-3.041-1.426-6.587-2.795-9.13-3.715l2.631,2.186
						c1.357,0.561,2.744,1.164,4.035,1.773c-0.611,0.029-1.216,0.055-1.808,0.078l0.794,0.66c0.85-0.031,1.643-0.066,2.305-0.1
						c1.113,0.57,2.11,1.139,2.886,1.678c0.392,0.279,0.845,0.596,1.327,0.939l-3.402,0.07l0.92,0.764l3.545-0.072
						c1.855,1.359,3.693,2.803,3.511,3.143c-0.56,0.064-1.778,0.133-3.153,0.172l0.834,0.693c2.211-0.061,4.08-0.199,4.693-0.299
						c1.648-0.262,0.723-1.191-5.383-5.453c-0.852-0.598-1.966-1.225-3.224-1.852l8.911-1.209l8.553,2.451
						c0.002,0.012-0.01,0.025-0.008,0.037c-0.406,0.918,0.865,2.688,3.807,5.289l-2.956-0.002l-0.372-0.264
						c-0.257-0.182-1.087-0.324-1.887-0.324s-1.287,0.143-1.113,0.324l2.037,2.092c0.184,0.191,1.018,0.355,1.865,0.365
						s1.384-0.141,1.184-0.332l-1.148-1.174l3.186,0.006c0.746,0.629,1.498,1.244,2.228,1.809l-12.331-0.42
						c-0.455-0.014-0.842,0.016-1.1,0.084c-0.26,0.066-0.332,0.164-0.209,0.266l6.986,5.811c0.096,0.078,0.299,0.152,0.566,0.211
						c-1.908-0.121-3.838-0.24-5.793-0.359l2.092,1.738c0.998,0.061,1.986,0.123,2.975,0.188l1.051,1.68l-1.783-0.004l0.895,0.742
						l1.352,0.008l1.156,1.852c-0.104-0.004-0.189-0.004-0.278-0.006l1.047,0.869c1.893,0.055,4.29,0.17,7.284,0.326
						c1.931,0.104,3.906,0.205,6.001,0.299c1.698,0.072,3.827,0.199,6.265,0.365l0.729,1.443l-0.1,2.904
						c0.005,0.039,0.024,0.078,0.074,0.117c-0.692,0.887-2.029,2.602-3.274,4.313c-0.8,1.08-1.435,2-1.923,2.742l3.45,2.867
						l7.525,0.82h9.663l-18.225-1.98c0.129-0.041,0.25-0.09,0.277-0.154c0.434-0.828,1.318-2.158,2.605-3.939
						c1.242-1.742,2.591-3.486,3.264-4.361c1.047-0.072,1.467-0.031,1.471-0.027c0.658,0.139,0.848,0.984,0.091,1.77
						c-0.125,0.135,0.134,0.305,0.655,0.428l5.82,1.604l14.281,3.162c-0.143,1.127-0.293,2.303-0.461,3.5h8.149
						c0.09-0.717,0.169-1.428,0.238-2.119l7.401,0.977c0.943,0.127,1.913,0.068,2.146-0.129c0.055-0.051,0.059-0.104,0.031-0.158
						c-0.109-0.158-0.613-0.33-1.333-0.426l-8.152-1.068c0.44-4.119,0.804-7.623,0.969-9.385c3.481,0.313,6.782,0.604,9.713,0.867
						l2.056,0.184c6.756,0.604,13.067,1.043,20.512,1.426l4.141,4.863c0.15,0.258,1.471,2.504,3.232,4.969h3.98
						c-1.813-2.5-3.162-4.748-3.192-4.789c-0.001-0.01-0.013-0.018-0.015-0.029l-4.176-4.82c3.179,0.148,6.576,0.291,10.309,0.432
						l2.57,3.254l3.112,5.582c-0.004,0.008,0.008,0.016,0.004,0.023c0.024,0.025,0.116,0.15,0.286,0.348h3.947
						c-0.081-0.086-0.116-0.141-0.136-0.164l-3.187-5.592c-0.012-0.008,0.104-0.012,0.087-0.021l-2.604-3.281
						c1.919,0.068,3.922,0.139,6.017,0.209c1.265,1.477,4.598,5.34,7.854,8.85h4.457c-2.701-2.881-5.658-6.182-7.834-8.699
						c3.971,0.127,8.262,0.262,12.957,0.408c3.221,0.1,6.242,0.195,9.127,0.289l5.574,6.65c-0.145,0.055-0.219,0.123-0.16,0.209
						c0.053,0.1,0.268,0.203,0.596,0.293l0.713,0.85h4.502l-0.359-0.424c1.857,0.107,4.398,0.252,7.379,0.424h37.791
						c0.041-0.039,0.021-0.086-0.037-0.137c-0.02-0.02-0.037-0.039-0.078-0.063c-0.406-0.238-1.512-0.438-2.479-0.441l-6.48-0.039
						c-0.91-0.451-1.824-0.904-2.727-1.359l6.766,0.029c0.609,0,0.951-0.109,0.787-0.256c-0.012-0.016-0.039-0.031-0.066-0.045
						c-0.283-0.17-1.074-0.309-1.746-0.309l-6.945-0.031c-1.07-0.545-2.129-1.092-3.168-1.637l3.223-0.172
						c0.605-0.035,0.768-0.191,0.357-0.354c-0.424-0.164-1.244-0.27-1.85-0.234l-2.893,0.152c-1.205-0.631-2.375-1.25-3.52-1.865
						c1.322,0.051,2.004,0.08,2.02,0.08c0.568,0.025,1.061,0,1.361-0.076c0.307-0.07,0.402-0.184,0.258-0.311l-1.516-1.443
						c1.43,0.002,3.99,0.01,8.305,0.053c3.164,0.035,4.869-0.164,5.068-0.584c0.148-0.291-0.484-0.607-1.293-0.887l10.857-0.051
						c0.941-0.006,1.42-0.172,1.166-0.393c-0.025-0.021-0.051-0.045-0.092-0.066l-1.674-0.957c5.014,0.152,10.08,0.303,15.102,0.457
						c1.059,0.73,3.699,2.299,8.902,4.096c3.467,1.201,10.133,3.93,16.588,6.842h3.529c-6.395-2.871-13.463-5.775-17.141-7.039
						c-4.801-1.648-7.287-3.109-8.303-3.789c10.203,0.309,20.023,0.613,28.338,0.885c7.123,0.234,14.951,0.545,22.85,0.891
						c4.322,2.189,8.689,4.711,13.936,7.979c0.543,0.344,1.15,0.701,1.768,1.074h8.211c-0.504-0.297-0.982-0.582-1.428-0.857
						c-5.15-3.162-9.494-5.641-13.746-7.801c15.885,0.734,31.041,1.535,39.975,2.018l-4.371-1.982
						c-6.166-0.328-14.549-0.762-23.84-1.217l-6.838-4.475c-0.031-0.021-0.063-0.043-0.102-0.063l-6.305-3.084
						c-0.57-0.279-2.008-0.506-3.227-0.51c-1.205-0.006-1.744,0.217-1.18,0.496l6.188,3.049l6.59,4.35
						c-3.549-0.17-7.182-0.34-10.832-0.506c-4.709-2.195-9.598-4.146-15.59-6.293c-0.787-0.496-3.873-2.434-7.793-4.943l5.846,0.016
						c0.578,0.002,1.016-0.049,1.232-0.139c0.232-0.09,0.195-0.215-0.064-0.344l-5.418-2.695l2.855,0.051
						c1.164,0.02,1.785-0.158,1.457-0.402c-0.021-0.012-0.043-0.021-0.057-0.035c-0.455-0.262-1.797-0.492-3-0.512l-5.199-0.092
						c-0.617-0.012-1.102,0.033-1.361,0.121c-0.246,0.088-0.246,0.217,0.014,0.346l5.436,2.723l-3.26-0.008
						c-3.291-2.109-6.988-4.504-10.379-6.756l6.834,0.473l2.217,1.49c0.385,0.25,1.611,0.479,2.813,0.521l21.699,0.785
						c0.615,0.021,1.135-0.008,1.434-0.082c0.203-0.051,0.293-0.119,0.287-0.195l-11.223-5.09c-0.156,0.063-0.184,0.15-0.043,0.246
						c0,0,0,0,0.008,0.004l5.963,4.102l-17.178-0.617l-2.111-1.402c-0.021-0.01-0.027-0.02-0.041-0.025l-3.488-2.314
						c-0.371-0.248-1.645-0.475-2.848-0.504c-1.201-0.031-1.854,0.148-1.486,0.396l2.6,1.744l-6.859-0.473
						c-2.301-1.535-4.389-2.971-6.064-4.174l27.633,1.242l-2.051-0.93l-26.818-1.197c-0.635-0.449-1.25-0.887-1.857-1.309
						c-0.238-0.174-0.484-0.344-0.715-0.514c7.967,0.447,17.186,0.969,25.971,1.467l-3.635-1.648
						c-8.393-0.471-17.053-0.953-24.516-1.367c-1.111-0.803-2.104-1.541-2.955-2.225l12.471,0.668l-0.641,1.232
						c-0.117,0.209,0.779,0.473,1.996,0.586c1.225,0.117,2.301,0.041,2.414-0.17l0.711-1.41l5.207,0.277l-1.98-0.898l-5.555-0.295
						c-0.016,0-0.029,0-0.049-0.002l-15.582-0.83c-1.967-1.727-2.848-3.072-2.078-4.152c0.242-0.344,0.297-0.734,0.207-1.152
						l9.961,0.494l-1.875-0.852l-8.412-0.414c-0.145-0.25-0.328-0.506-0.545-0.762l7.035,0.305l-1.84-0.834l-5.932-0.256
						c-1.314-1.258-3.205-2.529-4.949-3.541c0.186-0.027,0.365-0.057,0.559-0.086c0.422-0.066,0.852-0.141,1.264-0.225l-3.703-1.68
						c-0.463,0.107-0.926,0.215-1.367,0.314c-0.09-0.041-0.186-0.078-0.264-0.113c-0.881-0.354-1.275-0.947-1.369-1.561
						l-3.479-1.578l-3.672,0.027c-0.297,0.844-0.352,2.279,1.99,3.234c0.445,0.182,1.014,0.449,1.635,0.777
						c-5.574,0.545-11.736,0.432-16.471,0.338c-0.832-0.115-3.549-0.67-7.385-2.063c-2.018-0.736-3.689-1.461-4.934-2.094
						l-6.623,0.051c0.141,0.1,0.303,0.211,0.443,0.33c1.42,1.158,1.57,2.406,1.451,2.867c-0.602,0.018-1.568,0.033-2.961,0.035
						l-3.309-3.199l-3.764,0.029l3.232,3.156c-4.619-0.035-11.656-0.139-21.916-0.373c-6.752-0.154-13.318-0.324-18.947-0.486
						l-0.607-1.643c-0.018-0.016-0.021-0.031-0.037-0.047c-0.099-0.088-0.348-0.178-0.707-0.252
						c-0.098-0.02-0.195-0.037-0.307-0.055c-0.381-0.057-0.822-0.1-1.23-0.109l-7.21-0.217c-1.053-0.031-1.77,0.105-1.588,0.311
						c0.032,0.031,0.077,0.063,0.142,0.092c0.34,0.164,1.191,0.303,2.084,0.332l5.1,0.154l0.477,1.316
						c-5.014-0.152-8.975-0.293-11.148-0.389c-2.977-0.133-6.162-0.406-9.25-0.738c0.254-0.199,0.518-0.391,0.754-0.584
						l-14.72,0.113c1.741,0.264,3.737,0.547,5.88,0.83c-0.5,0.357-1.006,0.705-1.482,1.035l-15.955-1.777l-6.194,0.049l21.231,2.373
						c-0.447,0.313-0.883,0.619-1.295,0.916c-0.127,0.094-0.174-0.34-0.301-0.246l-37.404-2.908l-7.281,0.057l25.195,2.324
						l-1.793,1.916c-16.912-1.592-32.679-3.092-43.156-4.09l-12.58,0.098c4.243,0.408,14.399,1.383,27.39,2.625l2.907,4.453
						c0,0.008,0.012,0.016,0.012,0.025l1.699,2.6c-10.117-0.959-17.049-1.32-18.443-1.389c-1.128-0.082-2.326-0.168-3.613-0.264
						c-2.365-0.172-4.943-0.363-7.688-0.555l-6.035-7.467l-2.764,0.02l5.771,7.242c-8.378-0.563-17.833-1.09-26.358-1.189
						l-5.458-3.307l10.783-0.627c0.685-0.043,0.945-0.195,0.592-0.348c-0.355-0.152-1.185-0.25-1.891-0.215l-21.237,1.002
						c-1.085-0.854-1.868-1.465-2.13-1.656c-0.273-0.201-0.339-0.404-0.266-0.594l-3.625,0.027c0.007,0.197,0.137,0.404,0.418,0.613
						c0.273,0.193,1.105,0.852,2.256,1.77l-5.602,0.262l0.711,0.592L710.77-141.669z M752.165-136.7l1.693,6.744
						c-6.426-0.24-11.938-0.449-14.279-0.535l-9.062-7.074C737.253-137.522,744.934-137.151,752.165-136.7z M756.265-127.981
						l0.511-1.244c3.01,0.111,6.139,0.229,9.182,0.34l-0.318,1.479l-0.113,0.416L756.265-127.981z M765.352-126.36l-0.436,1.643
						l-15.438-0.836l0.692-0.75l4.351,0.002c0.627,0,1.07-0.09,1.127-0.217l0.35-0.844L765.352-126.36z M785.676-123.595
						l-17.648-0.955l0.408-1.594l18.799,0.893l-0.198,0.523C786.842-124.474,786.364-124.085,785.676-123.595z M788.745-122.565
						l15.689,1.684c-1.76,1.572-3.12,3.363-4.182,5.211l-19.017-2.287C784.182-119.675,786.903-121.329,788.745-122.565z
						 M768.598-126.769l0.111-0.436l0.314-1.57c1.654,0.063,3.264,0.117,4.781,0.174c2.244,0.08,3.642,0.189,4.416,0.266
						l-0.265,2.008L768.598-126.769z M767.394-135.638l-1.305,6.133c-3.05-0.109-6.198-0.227-9.22-0.34l-1.736-6.664
						c4.281,0.283,8.351,0.584,11.857,0.844C767.135-135.655,767.262-135.647,767.394-135.638z M778.903-134.864l-0.428,4.525
						l-0.179,1.379c-1.11-0.098-2.671-0.203-4.813-0.279c-1.383-0.047-2.84-0.102-4.334-0.154l1.209-6.025
						c0.188,0.014,0.362,0.027,0.537,0.039c0.145,0.012,0.299,0.018,0.452,0.025C771.39-135.353,774.202-135.218,778.903-134.864z
						 M790.533-133.845l-3.05,7.947l-6.412-0.377l0.451-3.875l0.395-4.48C784.432-134.425,787.336-134.165,790.533-133.845z
						 M798.856-132.946c10.846,1.266,18.926,1.842,23.683,2.1c-3.106,1.824-7.321,4.02-13.159,6.73
						c-1.526,0.705-2.854,1.543-4.033,2.471l-15.557-1.66c0.633-0.461,1.055-0.828,1.242-1.076c0-0.01,0.005-0.016,0.02-0.025
						l3.334-9.039C795.833-133.292,797.331-133.124,798.856-132.946z M872.825-103.999c-11.98-0.445-25.931-0.969-38.647-1.488
						l-0.623-0.719c-0.021-0.014-0.026-0.027-0.048-0.041c-0.025-0.018-1.216-0.967-2.035-2.15l30.446,1.238l0.865,0.918
						l-27.927-1.1c-1.049-0.043-1.786,0.113-1.62,0.35c0.156,0.23,1.157,0.463,2.224,0.504l29.992,1.189
						c0.531,0.02,1.08-0.006,1.384-0.072c0.284-0.07,0.46-0.172,0.363-0.287c0,0-0.005-0.004-0.011-0.008l-1.293-1.33l31.25,1.273
						c0.051,0.002,0.115,0.006,0.174,0.006c0.08,0.004,0.139,0.004,0.213,0.002l1.809,0.018l0.189,0.102l0.447,0.268
						c1.082,0.631,2.494,1.461,4.178,2.441c-6.83-0.215-12.957-0.422-17.459-0.594C882.551-103.638,877.856-103.812,872.825-103.999
						z M887.381-101.745c0.307,0.014,0.623,0.025,0.91,0.035c1.613,0.061,3.391,0.131,5.318,0.199c1,1.063,2.738,2.918,4.266,4.518
						c-2.08-0.072-4.279-0.143-6.625-0.221L887.381-101.745z M856.63-130.853c0.288,0.082,0.675,0.156,1.142,0.205
						c1.107,0.115,2.187,0.047,2.4-0.15l1.879-1.738l2.516,0.275c1.095,0.123,2.202,0.066,2.441-0.127
						c0.258-0.191-0.418-0.443-1.525-0.564l-2.666-0.295l1.785-1.654c3.397,0.314,6.617,0.607,9.602,0.879l-12.108,6.068
						L856.63-130.853z M923.963-91.956l-1.566-0.006l-1.953-1.201l1.234,0.006C922.424-92.759,923.196-92.356,923.963-91.956z
						 M912.364-128.331c-1.17-0.066-2.037,0.063-1.941,0.287l1.328,3.119l-45.236-0.682l-2.163-1.15
						c0.268-0.029,0.481-0.072,0.597-0.133l13.377-6.762c5.566,0.5,10.035,0.887,12.928,1.115
						c10.926,0.871,23.822,2.092,35.324,3.186c0.82,0.076,1.633,0.156,2.434,0.23l2.408,4.492l-15.469-0.232l-1.291-2.941
						C914.559-128.028,913.534-128.265,912.364-128.331z M889.434-137.14c0.381-0.439,0.844-0.896,1.377-1.293
						c1.156-0.857,1.135-1.602,0.986-2.018l14.896,0.332l2.117,3.855L889.434-137.14z M909.247-135.483l0.84,1.537l-21.684-1.803
						c0.111-0.178,0.268-0.404,0.443-0.66L909.247-135.483z M913.348-135.3l5.004,0.229l0.967,1.896l-5.016-0.418L913.348-135.3z
						 M910.686-140.028l5.238,0.117l2.037,4.061l-5.061-0.23L910.686-140.028z M919.93-139.823l4.201,0.094
						c0.131,0.229,0.307,0.475,0.545,0.736c0.848,0.963,1.564,2.242,2.131,3.541l-4.727-0.213L919.93-139.823z M927.145-134.673
						c0.654,1.619,1.092,3.18,1.336,4.098c-0.34-0.031-0.684-0.064-1.023-0.096c-11.607-1.094-24.605-2.318-35.785-3.201
						c-2.641-0.207-6.674-0.555-11.719-1.004c0.184-0.494,0.557-1.33,1.059-2.189l3.783,0.324c-0.424,0.559-0.643,0.977-0.674,1.012
						c-0.047,0.098,0.117,0.207,0.467,0.309c0.348,0.102,0.84,0.184,1.383,0.229l35.529,2.971c0.613,0.053,1.219,0.051,1.645,0.002
						c0.434-0.053,0.645-0.148,0.578-0.266l-1.227-2.396L927.145-134.673z M856.139-131.114l-2.978-1.582
						c-0.331-0.168-1.046-0.318-1.888-0.385l-15.669-1.277c1.317-1.156,2.12-2.123,2.738-2.986
						c7.759,0.727,15.316,1.434,22.257,2.076l-4.442,4.055C856.131-131.181,856.12-131.149,856.139-131.114z M893.34-108.907
						l4.152,2.223l-1.324-0.016l-31.2-1.26l-1.419-1.465l28.811,0.563C892.737-108.856,893.079-108.872,893.34-108.907z
						 M891.1-109.829l-28.482-0.547l-0.898-0.93l28.402,0.771c0.064,0.002,0.121,0.002,0.18,0.002l1.375,0.732
						C891.477-109.812,891.301-109.821,891.1-109.829z M830.739-113.056c-0.535-0.816-1.56-1.664-2.748-2.461l54.287,1.08
						c0.254,0.006,0.486-0.002,0.693-0.016l5.525,2.953L830.739-113.056z M874.485-118.999l6.807,3.643
						c-0.063-0.004-0.125-0.008-0.184-0.006l-14.374-0.285l-2.638-2.258l-0.021-0.014l-1.807-1.539L874.485-118.999z
						 M861.22-120.354l-2.421-2.074l10.364,0.582l3.06,1.641c0.027,0.016,0.049,0.029,0.09,0.045l0.438,0.238L861.22-120.354z
						 M822.223-118.821c-1.492-0.852-0.507-1.271-0.036-1.408c0.646,0.023,1.3,0.041,1.997,0.061
						c6.23,0.16,29.755,2.002,36.145,2.51l2.232,1.928l-36.021-0.709c-1.085-0.646-2.184-1.229-3.049-1.695
						C822.983-118.405,822.543-118.638,822.223-118.821z M837.805-120.204l1.418-3.324c0.093,0.006,0.171,0.012,0.264,0.018
						l15.055,0.844l4.695,4.066C854.752-118.954,845.833-119.644,837.805-120.204z M822.403-126.194
						c2.531-1.289,4.645-2.443,6.412-3.482l21.452,1.838l-1.052,1.529c-0.158,0.209,0.641,0.467,1.782,0.574
						c1.138,0.104,2.177,0.016,2.313-0.197l1.053-1.555l5.076,0.436l7.981,4.275l-11.369-0.637c-0.028,0-0.046-0.002-0.074-0.002
						l-16.452-0.918L822.403-126.194z M846.995-128.921l4.279-2.496l6.363,3.404L846.995-128.921z M829.987-130.372
						c1.992-1.217,3.498-2.271,4.675-3.203l13.71,1.119l-5.504,3.182L829.987-130.372z M915.711-96.364
						c-3.549-0.135-8.305-0.307-14.305-0.512c-1.547-1.602-3.309-3.457-4.309-4.516c3.139,0.105,6.582,0.219,10.236,0.338
						C909.793-99.647,912.625-98.054,915.711-96.364z M830.921-109.339c-0.101-0.24-0.179-0.482-0.208-0.723l29,0.563l1.306,1.377
						L830.921-109.339z M830.778-110.987c0.033-0.102,0.082-0.201,0.136-0.299c0.162-0.27,0.228-0.557,0.179-0.854l26.826,0.73
						l0.905,0.959L830.778-110.987z M813.467-121.595c0.822-0.578,1.721-1.104,2.705-1.566c1.764-0.828,3.381-1.609,4.857-2.35
						l14.117,1.541l-1.547,3.479c-4.361-0.289-8.125-0.506-10.23-0.559C818.942-121.165,815.613-121.399,813.467-121.595z
						 M831.436-137.995c-1.094,1.482-2.748,3.268-6.785,5.855c-2.963-0.121-11.297-0.557-23.836-2.012
						c-2.463-0.283-4.816-0.541-7.052-0.768l-1.596-2.385l25.694,2.195c1.075,0.092,2.07,0.004,2.209-0.199
						c0.023-0.033,0.014-0.072-0.02-0.109c-0.127-0.17-0.803-0.344-1.687-0.416l-26.731-2.277l-2.602-3.91
						C801.726-140.812,816.723-139.382,831.436-137.995z M833.897-141.226c-0.672,0.648-1.129,1.281-1.588,1.965
						c-5.025-0.469-10.078-0.943-15.059-1.412l1.767-1.926L833.897-141.226z M876.432-142.437c1.145,0.957,2.689,2.482,2.068,3.084
						c-1.324,1.283-2.225,3.211-2.605,4.115c-3.055-0.275-6.404-0.578-9.952-0.904l3.199-2.965c0.043-0.041,0.044-0.092-0.001-0.139
						c-0.071-0.061-0.194-0.121-0.391-0.178c-0.34-0.105-0.865-0.191-1.447-0.234l-7.941-0.602
						c-1.079-0.082-2.034,0.012-2.101,0.209c-0.085,0.197,0.733,0.426,1.828,0.508l5.716,0.436l-2.851,2.602
						c-7.063-0.65-14.812-1.369-22.761-2.109c0.646-1.006,1.251-1.891,2.571-2.857c0.634-0.461,1.313-0.945,2.03-1.459
						c0.506-0.355,1.002-0.709,1.484-1.053c3.697,0.396,7.604,0.729,11.391,0.9C860.406-142.917,867.942-142.673,876.432-142.437z
						 M928.137-142.13c-0.521,0.025-1.029,0.064-1.512,0.129c-1.805,0.242-2.709,0.74-2.713,1.512l-34.77-0.771
						c-1.023-0.021-1.693,0.121-1.506,0.322c0.016,0.008,0.801,0.93-0.773,2.082c-0.59,0.438-1.092,0.938-1.51,1.408l-3.883-0.33
						c0.289-0.426,0.621-0.834,0.984-1.189c0.781-0.768-1.018-2.447-2.127-3.363c4.18,0.113,8.494,0.221,12.6,0.313
						c29.336,0.664,31.211,0.291,32.223,0.094c0.361-0.07,0.822-0.164,0.854-0.797C926.733-142.505,927.432-142.31,928.137-142.13z
						 M940.512-137.13c0.008,0.068,0.02,0.141,0.045,0.213l-3.336-0.148c-1.145-0.053-1.928,0.084-1.76,0.297
						c0.164,0.221,1.221,0.434,2.369,0.488l2.893,0.127c0.771,2.799,2.842,5.646,3.998,7.078c-2.559-0.225-5.49-0.492-8.605-0.785
						c-0.453-1.674-1.854-6.275-4.209-8.852c-1.455-1.594-0.24-1.977,0.137-2.053c0.48,0.029,2.096,0.152,3.709,0.512
						C937.768-139.806,940.235-138.899,940.512-137.13z M965.254-127.79c-6.033-0.33-10.539-0.57-12.287-0.652
						c-0.137-0.006-0.295-0.014-0.453-0.023c-1.209-1.424-3.961-4.953-4.539-8.17c-0.133-0.691-0.574-1.328-1.322-1.908
						c-1.105-0.842-2.861-1.563-5.252-2.156c4.051,0.057,8.805,0.047,13.443-0.275c2.865,1.85,5.693,4.289,4.66,5.682
						C958.172-133.474,960.733-131.136,965.254-127.79z M973.956-121.499l-19.479-0.293l-14.166-0.297l-3.553-6.299
						c4.85,0.451,9.047,0.828,12.342,1.09c0.068,0.006,0.15,0.012,0.232,0.018c1.982,0.156,3.631,0.27,4.881,0.328
						c1.771,0.082,6.635,0.344,13.148,0.707c0.344,0.246,0.689,0.492,1.041,0.748c0.953,0.682,1.936,1.396,2.971,2.152
						C972.151-122.778,973.016-122.157,973.956-121.499z M989.282-111.249l-37.297-0.088l-1.236-1.105l26.828,0.504
						c1.166,0.023,1.801-0.156,1.477-0.402c-0.012-0.014-0.033-0.023-0.039-0.035c-0.416-0.262-1.752-0.494-2.957-0.518
						l-26.371-0.49l-2.764-2.471l11.652,0.088c1.082,0.006,1.643-0.168,1.359-0.398c-0.018-0.016-0.043-0.037-0.082-0.057
						c-0.451-0.254-1.773-0.471-2.93-0.479l-11.029-0.078l-2.334-2.078l20.291-0.018c1.029,0,1.555-0.172,1.27-0.391
						c-0.031-0.021-0.064-0.045-0.115-0.07c-0.496-0.25-1.811-0.455-2.953-0.453l-19.514,0.02l-1.602-1.439l14.887,0.313h0.057
						l19.367,0.295C979.475-117.677,984.79-114.173,989.282-111.249z M993.711-108.368l-54.066-0.691l-2.389-1.352l53.518,0.133
						C991.831-109.591,992.821-108.948,993.711-108.368z M975.663-100.728l-9.076-5.549c-0.166-0.109-0.537-0.213-0.986-0.289
						c-0.451-0.076-0.98-0.125-1.432-0.123l-20.416-0.064l-2.357-1.326l53.846,0.695c1.895,1.219,3.09,1.979,3.141,2.01
						c0.137,0.082,0.303,0.164,0.531,0.246c5.441,1.959,9.904,3.744,14.182,5.721c-7.393-0.316-14.689-0.602-21.379-0.818
						C986.797-100.382,981.374-100.554,975.663-100.728z M946.542-105.233l-0.678-0.746l17.957,0.059l8.246,5.084
						c-5.602-0.17-11.447-0.346-17.307-0.52C952.469-102.446,948.51-104.313,946.542-105.233z M933.418-111.38l-9.551-0.025
						l-5.383-3.789l14.914,0.322c0.574,0.01,1.057-0.027,1.334-0.105c0.283-0.08,0.34-0.195,0.16-0.32l-8.967-6.238
						c2.637,0.035,5.029,0.098,6.465,0.146c0.049,0.002,0.09,0.002,0.125,0.006l0.895,0.018l10.666,9.748
						c0.1,0.09,0.252,0.178,0.479,0.266l-11.092-0.027c-0.014,0-0.014,0-0.029,0H933.418z M929.954-115.849l-12.777-0.275
						l-6.861-4.838c0.375-0.043,0.723-0.086,1.07-0.127c0.736-0.086,1.422-0.168,2.053-0.234c1.813-0.195,5.025-0.258,8.371-0.25
						L929.954-115.849z M922.948-106.065l-11.059-4.412l11.346,0.029h0.059l9.729,0.025l3.199,1.814l0.02,0.01l5.479,3.119
						c0.025,0.014,0.059,0.031,0.1,0.045c0.119,0.057,0.258,0.123,0.404,0.193l-36.053,0.777c-0.561-0.324-1.059-0.611-1.492-0.869
						l-0.551-0.318l17.654,0.168c0.658,0.008,1.172-0.057,1.4-0.17C923.399-105.765,923.321-105.915,922.948-106.065z
						 M934.325-99.29l-1.479-0.975c0.752,0.02,1.512,0.045,2.285,0.068l8.426,0.506l0.617,0.354L934.325-99.29z M917.083-98.269
						l15.768-0.08c0.701,0.188,1.186,0.363,1.168,0.422c0,0-0.201,0.119-2.357,0.096c-7.939-0.078-10.107-0.043-10.199-0.043
						c-0.857,0.016-1.322,0.18-1.094,0.389l1.402,1.352c-0.258-0.006-0.545-0.021-0.84-0.031
						C919.59-96.886,918.307-97.589,917.083-98.269z M912.389-100.896c5.262,0.164,10.82,0.336,16.418,0.506l1.68,1.119
						l-15.068,0.076C914.366-99.782,913.35-100.351,912.389-100.896z M907.512-103.681l36.371-0.781
						c1.91,0.902,4.451,2.113,6.244,2.969c-1.777-0.057-3.561-0.107-5.336-0.162c-5.234-0.152-10.461-0.309-15.549-0.461
						c-6.633-0.197-13.557-0.406-20.061-0.611C908.588-103.062,908.034-103.382,907.512-103.681z M894.954-110.519l12.674,0.031
						l9.92,3.986l-15.285-0.141l-3.326-1.766l4.277,0.014c0.908,0.004,1.363-0.166,1.025-0.375c-0.35-0.207-1.357-0.379-2.256-0.381
						l-4.473-0.012L894.954-110.519z M890.438-112.909l27.584,0.33l1.631,1.168l-11.859-0.029h-0.088l-14.557-0.035L890.438-112.909
						z M885.133-115.726l28.629,0.383c0.131,0.018,0.291,0.033,0.438,0.041l2.496,1.779l-28.037-0.332L885.133-115.726z
						 M877.594-119.726c15.322,0.186,23.703-0.32,29.203-0.852l6.051,4.316l-29.459-0.391L877.594-119.726z M875.899-120.626
						l-7.75-4.111l63.736,0.973l0.816,1.518l-1.367-0.029c-1.229-0.037-15.277-0.475-20.885,0.125
						c-0.688,0.072-1.395,0.158-2.152,0.246c-0.242,0.029-0.486,0.059-0.742,0.09l-1.418-0.369l2.545-0.84
						c0.521-0.168,0.059-0.447-1.018-0.623c-1.072-0.176-2.357-0.186-2.865-0.018l-3.211,1.059
						c-0.412,0.129-0.238,0.334,0.432,0.506l2.414,0.629C899.211-120.944,891.17-120.435,875.899-120.626z M903.799-94.476
						c-0.385-0.359-0.9-0.879-1.484-1.475c6.504,0.221,11.525,0.406,15.154,0.545c0.994,0.543,2.035,1.094,3.066,1.646l-2.287-0.01
						c-0.686-0.002-1.021,0.127-0.752,0.293l2.908,1.801c0.121,0.08,0.377,0.156,0.715,0.219c0.314,0.057,0.686,0.092,1.012,0.092
						l3.004,0.018c1.715,0.887,3.482,1.777,5.248,2.656l-0.029,0.02c-1.447,0.09-6.475,0.336-14.33-0.02
						c-0.801-0.385-1.412-0.684-1.713-0.854c-0.996-0.576-2.561-1.184-4.191-1.824C907.575-92.362,904.959-93.384,903.799-94.476z
						 M892.045-96.296c2.383,0.08,4.605,0.15,6.723,0.223c0.582,0.6,1.105,1.117,1.479,1.48c1.303,1.24,4.223,2.387,6.811,3.406
						c1.523,0.598,2.984,1.168,3.834,1.658c0.244,0.146,0.662,0.359,1.225,0.633c-6.076-0.334-11.311-0.631-14.449-0.813
						L892.045-96.296z M854.231-98.405l-3.766-4.744c2.541,0.096,5.09,0.197,7.623,0.295l0.598,2.355
						c0.055,0.209,0.877,0.432,1.855,0.494c0.971,0.068,1.709-0.053,1.65-0.262l-0.656-2.455c4.434,0.168,8.747,0.33,12.83,0.482
						c2.982,0.113,5.857,0.223,8.563,0.324l3.824,4.555c-2.92-0.092-6.016-0.191-9.285-0.289
						C868.368-97.933,860.792-98.175,854.231-98.405z M839.788-98.987l-4.106-4.76c3.507,0.148,7.103,0.291,10.706,0.436
						l3.771,4.756C846.392-98.696,842.975-98.837,839.788-98.987z M804.885-106.876c0.181-0.965,0.412-2,0.732-3.064l5.119,0.482
						c-0.123,0.242-0.305,0.467-0.511,0.652c-0.192,0.178,0.364,0.406,1.278,0.512c0.895,0.104,1.785,0.043,1.99-0.135
						c1.012-0.908,1.16-2.656,1.172-2.854c0-0.02,0-0.041-0.02-0.063c-0.061-0.08-0.237-0.164-0.519-0.238
						c-0.366-0.096-0.878-0.164-1.384-0.18c-0.75-0.027-1.324,0.068-1.382,0.225l-0.482,1.383l-5.056-0.473
						c1.138-3.561,3.132-7.379,6.639-10.211c1.438,0.137,3.327,0.289,5.633,0.42c-0.495,0.352-0.643,0.887,0.684,1.654
						c0.336,0.195,0.778,0.432,1.292,0.707c0.939,0.5,2.142,1.146,3.298,1.855c-0.03,0.045-0.027,0.094,0.022,0.145
						c0.099,0.094,0.314,0.18,0.614,0.256c2.12,1.383,3.873,2.945,3.115,4.154c-1.283,2.082,2.252,5.035,2.639,5.344l0.551,0.654
						C820.278-106.071,811.25-106.493,804.885-106.876z M816.542-100.517l1.863-3.994c4.165,0.199,8.674,0.4,13.385,0.6l4.023,4.73
						C828.833-99.542,822.85-99.956,816.542-100.517z M804.333-101.601c0.016-0.752,0.08-2.043,0.299-3.641
						c2.944,0.182,6.445,0.371,10.336,0.564l-1.841,3.855C810.357-101.069,807.399-101.329,804.333-101.601z M790.186-108.017
						c-6.387-0.537-14.291-1.205-23.247-1.893c0.517-0.279,1.167-0.637,1.933-1.057l8.052,0.986
						c0.134,0.027,0.296,0.053,0.464,0.072l3.568,0.426c0.873,0.102,1.763,0.045,1.987-0.127c0.22-0.174-0.311-0.4-1.173-0.504
						l-2.016-0.248l1.752-1.412l9.869-2.414c0.292-0.074,0.361-0.184,0.189-0.297c-0.176-0.117-0.574-0.223-1.064-0.283
						l-12.148-1.529c0.634-0.359,1.262-0.723,1.893-1.082l19.649,2.367c-1.394,2.605-2.21,5.287-2.673,7.584
						C795.235-107.589,792.888-107.786,790.186-108.017z M787.438-114.44l-8.775,2.143c-0.119,0.025-0.201,0.059-0.246,0.1
						l-1.803,1.451l-6.675-0.814c2.087-1.148,4.712-2.619,7.407-4.152L787.438-114.44z M796.577-102.278
						c-5.25-0.455-10.559-0.902-15.493-1.301c1.446-0.965,2.633-2.072,3.063-3.303c1.906,0.162,3.717,0.314,5.42,0.461
						c2.824,0.24,5.265,0.447,7.36,0.621C796.692-104.29,796.602-103.056,796.577-102.278z M775.682-100.769
						c1.205-0.547,2.736-1.24,4.18-2.061c5.289,0.42,11.067,0.91,16.697,1.4c-0.197,1.596-0.607,4.758-1.1,8.545L778.1-96.981
						c0.123-0.182,0.293-0.453,0.346-0.746c0.145-0.807-0.563-1.363-2.174-1.697c-0.795-0.166-1.714-0.258-2.745-0.277
						C773.817-99.935,774.789-100.374,775.682-100.769z M773.015-101.46l0.011-0.539c-0.004-0.014-0.012-0.031-0.015-0.047
						l-0.716-1.365c1.305,0.094,2.676,0.197,4.086,0.305C775.218-102.47,774.024-101.921,773.015-101.46z M780.846-107.159
						c-0.434,1.234-1.688,2.35-3.203,3.309c-1.713-0.131-3.357-0.256-4.929-0.371l3.376-2.184c0.264-0.17-0.228-0.404-1.094-0.521
						c-0.861-0.113-1.785-0.068-2.063,0.104l-3.68,2.355c-2.682-0.18-5.036-0.32-6.928-0.402c-2.014-0.088-3.955-0.189-5.834-0.289
						c-1.57-0.082-3.121-0.16-4.598-0.227l-1.318-2.283c-0.041-0.057-0.125-0.115-0.262-0.168l-1.096-1.729
						C761.104-108.769,771.902-107.907,780.846-107.159z M748.952-124.761l16.38,0.891l3.269,2.633
						c0.225,0.188,1.101,0.342,1.933,0.342c0.836,0.002,1.327-0.148,1.082-0.34l-3.077-2.461l16.006,0.869
						c-5.561,3.65-18.662,10.811-21.941,12.59c-3.898-0.291-7.98-0.58-12.195-0.861l7.133,0.283
						c0.885,0.033,1.533-0.098,1.438-0.297c-0.086-0.201-0.881-0.387-1.764-0.42l-8.38-0.332l-6.171-5.098l11.021,0.377
						c1.549,1.188,2.715,2.008,2.746,2.021c0.276,0.195,1.16,0.344,1.985,0.338s1.301-0.166,1.054-0.359l-6.17-4.869
						c-0.064-0.051-0.178-0.098-0.314-0.141C750.103-122.097,748.727-123.862,748.952-124.761z M739.979-128.046l1.918-0.504
						l7.742,0.504l3.368,0.363l-0.31,0.723l-4.242,0.002c-0.571,0-1.008,0.074-1.113,0.188l-0.597,0.652L739.979-128.046z
						 M735.071-129.446l3.973-0.449c1.656,0.063,7.578,0.289,14.671,0.555l-0.435,1.041l-3.035-0.324
						c-0.095-0.012-0.198-0.02-0.298-0.025l-8.748-0.568c-0.532-0.035-1.038-0.01-1.334,0.068l-1.972,0.51L735.071-129.446z
						 M719.654-137.442c2.626-0.035,4.927-0.07,6.734-0.102c0.435-0.008,0.874-0.014,1.316-0.018l9.058,7.131l-3.693,0.416
						l-6.402-1.828C725.993-132.386,722.892-134.862,719.654-137.442z M714.127-141.825l8.244-0.391l5.369,3.277
						c-1.15,0.002-2.295,0.01-3.4,0.029c-1.734,0.029-3.908,0.064-6.408,0.1C716.551-139.901,715.235-140.952,714.127-141.825z
						 M901.192-143.958c1.09,0.029,1.775-0.115,1.537-0.322l-2.051-1.838l-3.727,0.027l1.879,1.705
						C899.067-144.181,900.118-143.987,901.192-143.958z"/>
				</g>
			</g>
			<g>
				<g>
					<g>
						<path fill="#383C55" d="M828.417-334.82l-10.749-11.304l-12.408,1.928c-8.282,1.287-16.128,4.588-22.858,9.617l-30.864,23.063
							l2.192,2.306l29.573-16.972c6.19-3.552,13.142-5.543,20.261-5.801l26.632-0.966"/>
						<g>
							<path fill="#26293D" d="M841.77-328.307l-10.455-11.554l-12.461,1.627c-8.316,1.086-16.252,4.195-23.114,9.058l-31.474,22.3
								l2.132,2.356l30.023-16.244c6.284-3.4,13.29-5.222,20.416-5.308l26.663-0.323"/>
							<path fill="#9C2118" d="M769.596-300.984c-2.507,2.292-6.381,2.114-8.651-0.396c-2.271-2.51-2.08-6.402,0.427-8.693
								c2.508-2.291,6.381-2.114,8.652,0.396C772.294-307.167,772.104-303.275,769.596-300.984z"/>
						</g>
						<path fill="#9C2118" d="M757.018-305.751c-2.445,2.352-6.32,2.268-8.655-0.188s-2.246-6.354,0.198-8.706
							c2.445-2.352,6.32-2.268,8.655,0.188C759.551-312.001,759.462-308.104,757.018-305.751z"/>
					</g>
					<polygon fill="#B46D32" points="912.27,-269.084 757.042,-269.084 757.042,-241.503 757.042,-238.98 757.042,-211.4 
						797.833,-187.342 985.95,-187.342 985.95,-213.923 985.95,-216.447 985.95,-244.027 					"/>
					<rect x="797.833" y="-244.027" fill="#9EA4CD" width="10.654" height="56.683"/>
					<polygon fill="#EEAC77" points="985.95,-244.027 978.866,-244.027 797.833,-244.027 757.042,-269.084 912.27,-269.084 					"/>
					<polyline fill="#C3CBE6" points="797.805,-244.051 789.084,-249.402 808.487,-244.027 					"/>
					<polygon fill="#D69057" points="985.95,-244.027 757.042,-269.084 912.27,-269.084 					"/>
					<polygon fill="#9EA4CD" points="985.985,-187.344 975.331,-187.344 975.331,-244.027 978.229,-246.653 985.985,-244.027 					
						"/>
					<g>
						<path fill="#26293D" d="M884.616-329.31l3.5-14.185l19.102,3.481c8.338,0.805,16.354,3.647,23.35,8.278l32.082,21.24
							l-2.061,2.429l-30.459-15.232c-6.375-3.188-13.426-4.773-20.545-4.618l-26.643,0.578"/>
						<path fill="#9C2118" d="M957.497-304.422c2.57,2.207,6.434,1.898,8.629-0.689s1.893-6.474-0.678-8.681
							c-2.57-2.207-6.434-1.898-8.631,0.689C954.622-310.516,954.926-306.629,957.497-304.422z"/>
					</g>
					<path fill="#8185B2" d="M855.825-326.461h-23.129l-18.591-7.18c-10.979-4.24-22.5-6.84-34.2-7.72
						c-2.369-0.18-4.729-0.29-7.109-0.33l-15.75-0.25l-10.381-0.16h-0.109c0,2.78-2.23,5.02-4.99,5.02h-23.13
						c-2.76,0-4.989-2.24-4.989-5.02v-8.66c0-2.78,2.229-5.02,4.989-5.02h23.58c2.12,0,3.931,1.32,4.649,3.2
						c0.221,0.56,0.341,1.18,0.341,1.82v0.89l10.04-1.31l28.039-3.66l7.25-0.94l6.361-0.45c0,0,0,0,1.81,0.45
						c1.819,0.45,31.739,0,31.739,0l13.5,16.79L855.825-326.461z"/>
					<path fill="#676A8F" d="M849.199-339.861l-16.95-15.921c0,0-29.926,0.452-31.748,0c-1.809-0.452-1.809-0.452-1.809-0.452
						l-6.353,0.452l-6.974,0.908v14.065c9.818,1.191,19.473,3.587,28.736,7.167l18.596,7.184h23.123L849.199-339.861z"/>
					<path fill="#4A4B68" d="M999.094-361.251v8.67c0,3.52-2.84,6.38-6.34,6.38h-40.359c-2.75,0-4.99-2.24-4.99-5.02l-28.08,2.96
						c-12.27,1.3-23.17,8.42-29.35,19.16l-1.51,2.64h-32.641l-5.59-7.47c-5.109-6.81-12.1-11.88-20.039-14.61
						c-1.891-0.66-3.851-1.18-5.841-1.56l-1.069-0.2c0,0.25-0.03,0.5-0.09,0.74c-0.131,0.6-0.44,1.14-0.851,1.56
						c-0.59,0.59-1.399,0.95-2.29,0.95h-30.21c-2.62,0-4.761-2.14-4.761-4.79v-11.01c0-2.64,2.141-4.79,4.761-4.79h28.46
						c2.43,0,4.45,1.76,4.891,4.08c0.06,0.3,0.09,0.62,0.09,0.94l6.91,1.21l20.039,3.51c18.44,3.22,37.25,3.87,55.871,1.91
						l41.299-4.35v-2.28c0-2.77,2.24-5.02,4.99-5.02h40.359C996.254-367.642,999.094-364.781,999.094-361.251z"/>
					<path fill="#383C55" d="M999.094-361.251v8.67c0,3.52-2.84,6.38-6.34,6.38h-40.359c-1.641,0-3.109-0.8-4.01-2.04
						c-0.619-0.83-0.98-1.86-0.98-2.98l-3.289,0.35l-24.791,2.61c-12.27,1.3-23.17,8.42-29.35,19.16l-1.51,2.64h-16.6v-28.86
						c11.4,0.74,22.859,0.53,34.24-0.67l38.01-4l3.289-0.35v-2.28c0-1.12,0.361-2.15,0.98-2.98c0.91-1.24,2.369-2.04,4.01-2.04
						h40.359C996.254-367.642,999.094-364.781,999.094-361.251z"/>
					<path fill="#26293D" d="M896.366-355.215c-8.164,0.457-16.348,0.423-24.5-0.106v28.86h16.6l1.51-2.64
						c1.768-3.07,3.93-5.833,6.391-8.26V-355.215z"/>
					<ellipse fill="#26293D" cx="872.782" cy="-350.705" rx="23.583" ry="21.038"/>
					<path fill="#8185B2" d="M895.717-355.782c0,12.849-10.178,23.262-22.738,23.262c-12.562,0-22.748-10.413-22.748-23.262
						c0-7.088,3.105-13.438,7.994-17.693c3.965-3.476,9.123-5.569,14.754-5.569c6.91,0,13.109,3.161,17.268,8.142
						C893.653-366.853,895.717-361.557,895.717-355.782z"/>
					<path fill="#6E739B" d="M890.247-370.903c-2.125-2.545-4.783-4.61-7.797-6.026c0.725,0.669,1.41,1.38,2.043,2.139
						c3.406,4.051,5.471,9.346,5.471,15.121c0,12.849-10.178,23.263-22.738,23.263c-3.398,0-6.621-0.768-9.517-2.134
						c4.037,3.741,9.394,6.021,15.271,6.021c12.561,0,22.738-10.414,22.738-23.262C895.717-361.557,893.653-366.853,890.247-370.903
						z"/>
					<g>
						<path fill="#AFB6DA" d="M850.231-355.782c0,3.014,0.566,5.892,1.587,8.535c-0.095-0.86-0.147-1.733-0.147-2.619
							c0-7.088,3.105-13.437,7.994-17.693c2.357-2.065,5.142-3.627,8.189-4.567c-3.117-0.455-6.58-0.937-9.629-1.349
							C853.336-369.22,850.231-362.871,850.231-355.782z"/>
						<g>
							<path fill="#26293D" d="M858.091-338.373l-0.941-0.337l0.147-0.412c1.066-2.974,3.945-5.41,7.701-6.518l0.977-0.288
								c3.516-1.036,6-3.515,6.328-6.313c0.398-3.412-2.387-6.536-6.773-7.598c-2.598-0.628-4.773-1.97-6.13-3.778l-4.565-6.216
								l0.575-0.718l4.79,6.334c1.217,1.623,3.193,2.832,5.564,3.406c4.895,1.185,7.992,4.756,7.533,8.686
								c-0.381,3.247-3.078,5.989-7.039,7.156l-0.977,0.288c-3.451,1.018-6.084,3.222-7.043,5.896L858.091-338.373z"/>
						</g>
						<path fill="#9EA4CD" d="M895.555-358.417c-0.525-4.742-2.428-9.062-5.309-12.486l0.334,3.927
							c0.01,0.191,0.021,0.383,0.021,0.561c0,0.072-0.016,0.139-0.018,0.21c0.381,0.394,0.752,0.796,1.102,1.217
							C893.311-363.055,894.62-360.833,895.555-358.417z"/>
						<path fill="#26293D" d="M874.418-373.129c-2.283,0-4.483,0.36-6.564,1.002c0.201,0.029,0.414,0.059,0.611,0.088
							c5.373,0.78,10.402,3.694,14.4,8.333l0.945,1.108c0.752,0.862,1.729,1.341,2.74,1.341c2.199,0,3.945-2.227,4.033-4.948
							C886.471-370.474,880.745-373.129,874.418-373.129z"/>
						<path fill="#373D53" d="M890.581-366.976l-0.334-3.927c-4.158-4.981-10.357-8.142-17.268-8.142
							c-5.631,0-10.789,2.094-14.754,5.569c3.049,0.412,6.512,0.894,9.629,1.349c2.081-0.642,4.281-1.002,6.564-1.002
							c6.326,0,12.053,2.655,16.166,6.925c0.002-0.071,0.018-0.139,0.018-0.21C890.602-366.592,890.59-366.784,890.581-366.976z"/>
					</g>
					<path fill="#4A4B68" d="M874.413-342.094c0,0,9.846-8.21,13.428-7.754s0,7.754,0,7.754s0.623-3.064-3.225-3.886
						C880.77-346.803,874.413-342.094,874.413-342.094z"/>
					<g>
						<path fill="#B33828" d="M985.95-367.637H966v-5.877c0-1.289,1.043-2.333,2.332-2.333h15.283c1.289,0,2.334,1.044,2.334,2.333
							V-367.637z"/>
						<path fill="#9C2118" d="M983.616-375.847h-8.25v8.21h10.584v-5.877C985.95-374.803,984.905-375.847,983.616-375.847z"/>
						<path fill="#26293D" d="M982.776-375.847h-13.602v-12.166c0-2.854,2.313-5.167,5.166-5.167h3.602
							c2.67,0,4.834,2.164,4.834,4.833V-375.847z"/>
					</g>
					<g>
						<path fill="#B33828" d="M815.014-367.637h-19.95v-5.877c0-1.289,1.045-2.333,2.333-2.333h15.283
							c1.289,0,2.334,1.044,2.334,2.333V-367.637z"/>
						<path fill="#9C2118" d="M812.68-375.847h-7.564v8.21h9.898v-5.877C815.014-374.803,813.969-375.847,812.68-375.847z"/>
						<path fill="#26293D" d="M811.84-375.847h-13.603v-12.166c0-2.854,2.313-5.167,5.167-5.167h3.602
							c2.67,0,4.834,2.164,4.834,4.833V-375.847z"/>
					</g>
					<g>
						<path fill="#B33828" d="M740.202-355.693h-16.695v-4.538c0-1.289,1.045-2.333,2.334-2.333h12.027
							c1.289,0,2.334,1.044,2.334,2.333V-355.693z"/>
						<path fill="#9C2118" d="M737.868-362.564h-5.252v6.871h7.586v-4.538C740.202-361.519,739.157-362.564,737.868-362.564z"/>
						<path fill="#26293D" d="M737.545-362.563h-11.383v-10.769c0-2.063,1.673-3.736,3.736-3.736h4.15
							c1.932,0,3.496,1.565,3.496,3.495V-362.563z"/>
					</g>
					<path fill="#8185B2" d="M982.776-384.682c1.947-0.653,28.313-0.371,43.123-0.158c2.213,0.032,2.779,3.094,0.73,3.936
						l-6.434,2.643c-11.672,4.795-24.994,3.042-35.049-4.614L982.776-384.682z"/>
					<path fill="#8185B2" d="M969.174-384.682c-1.949-0.653-28.314-0.371-43.125-0.158c-2.213,0.032-2.777,3.094-0.729,3.936
						l6.432,2.643c11.674,4.795,24.996,3.042,35.049-4.614L969.174-384.682z"/>
					<path fill="#8185B2" d="M812.008-384.682c1.949-0.653,28.314-0.371,43.125-0.158c2.212,0.032,2.777,3.094,0.729,3.936
						l-6.432,2.643c-11.674,4.795-24.996,3.042-35.049-4.614L812.008-384.682z"/>
					<path fill="#8185B2" d="M797.901-384.514c-1.948-0.653-28.313-0.371-43.124-0.158c-2.212,0.032-2.778,3.094-0.729,3.936
						l6.433,2.643c11.673,4.796,24.995,3.042,35.049-4.614L797.901-384.514z"/>
					<path fill="#8185B2" d="M737.545-369.849c1.389-0.485,20.191-0.275,30.752-0.118c1.578,0.024,1.981,2.297,0.521,2.921
						l-4.587,1.962c-8.607,3.68-15.88,3.799-24.994-3.425L737.545-369.849z"/>
					<path fill="#8185B2" d="M726.038-369.849c-1.389-0.485-20.189-0.275-30.752-0.118c-1.577,0.024-1.98,2.297-0.52,2.921
						l4.587,1.962c8.325,3.56,17.825,2.258,24.993-3.425L726.038-369.849z"/>
					<path fill="#9C2118" d="M849.673-319.619h31.946c3.781,0,6.848-3.065,6.848-6.846l0,0h-45.641l0,0
						C842.827-322.684,845.892-319.619,849.673-319.619z"/>
					<path fill="#B33828" d="M871.532-326.465h-28.705c0,3.781,3.065,6.846,6.847,6.846h21.858V-326.465z"/>
					<rect x="860.588" y="-319.681" fill="#373D53" width="16.322" height="6.347"/>
					<rect x="865.674" y="-313.334" fill="#8185B2" width="5.584" height="14.596"/>
					<rect x="865.674" y="-313.334" fill="#676D98" width="5.582" height="2.893"/>
					<rect x="865.674" y="-302.691" fill="#676D98" width="5.582" height="3.953"/>
					<ellipse fill="#9EA4CD" cx="869.714" cy="-283.816" rx="16.556" ry="16.656"/>
					<path fill="#BBC0DE" d="M870.87-296.933c5.814,0,10.955,2.681,14.158,6.795c-2.475-6.062-8.395-10.334-15.313-10.334
						c-9.144,0-16.557,7.457-16.557,16.655c0,0.79,0.073,1.561,0.179,2.322C853.999-290.123,861.584-296.933,870.87-296.933z"/>
					<path fill="#6E739B" d="M885.079-290.002c0.137,0.864,0.229,1.744,0.229,2.647c0,9.199-7.414,16.656-16.557,16.656
						c-6.969,0-12.922-4.337-15.363-10.47c1.263,7.938,8.081,14.008,16.327,14.008c9.144,0,16.556-7.457,16.556-16.656
						C886.27-286.004,885.84-288.088,885.079-290.002z"/>
					<ellipse fill="#4A4B68" cx="874.482" cy="-283.816" rx="8.278" ry="8.328"/>
					<ellipse fill="#232424" cx="875.147" cy="-284.484" rx="4.182" ry="4.207"/>
					<ellipse fill="#BBC0DE" cx="876.912" cy="-285.243" rx="1.159" ry="1.166"/>
					<circle fill="#BBC0DE" cx="875.726" cy="-282.275" r="0.579"/>
					<path fill="#4A4B68" d="M843.348-326.458h-10.65l-18.596-7.184c-10.977-4.242-22.498-6.842-34.195-7.718l23.898-0.506
						c7.373-0.15,14.664,1.464,21.275,4.721C825.081-337.145,846.45-327.32,843.348-326.458z"/>
					<g>
						<line fill="#FAFAFA" x1="979.991" y1="-245.192" x2="888.465" y2="-326.461"/>
						<path fill="#232424" d="M979.991-244.192c-0.236,0-0.475-0.083-0.664-0.252l-91.525-81.27
							c-0.412-0.367-0.449-0.999-0.084-1.412c0.369-0.415,1-0.451,1.412-0.083l91.525,81.269c0.412,0.367,0.449,0.999,0.084,1.412
							C980.54-244.305,980.266-244.192,979.991-244.192z"/>
					</g>
					<g>
						<line fill="#FAFAFA" x1="798.786" y1="-245.192" x2="843.348" y2="-326.458"/>
						<path fill="#232424" d="M798.785-244.192c-0.163,0-0.327-0.039-0.479-0.123c-0.484-0.266-0.662-0.873-0.396-1.357
							l44.563-81.267c0.266-0.484,0.871-0.662,1.357-0.396c0.484,0.266,0.662,0.874,0.396,1.358l-44.563,81.266
							C799.481-244.379,799.138-244.192,798.785-244.192z"/>
					</g>
					<path fill="#4A4B68" d="M800.222-244.504h-1.618c-0.664,0-1.207-0.542-1.207-1.205l0,0c0-0.663,0.543-1.206,1.207-1.206h1.618
						c0.663,0,1.206,0.543,1.206,1.206l0,0C801.428-245.046,800.885-244.504,800.222-244.504z"/>
					<path fill="#4A4B68" d="M980.799-244.504h-1.619c-0.662,0-1.205-0.542-1.205-1.205l0,0c0-0.663,0.543-1.206,1.205-1.206h1.619
						c0.664,0,1.205,0.543,1.205,1.206l0,0C982.004-245.046,981.463-244.504,980.799-244.504z"/>
					<path fill="#4A4B68" d="M913.081-267.878h-1.619c-0.664,0-1.205-0.542-1.205-1.206l0,0c0-0.663,0.541-1.206,1.205-1.206h1.619
						c0.662,0,1.205,0.542,1.205,1.206l0,0C914.286-268.421,913.743-267.878,913.081-267.878z"/>
					
						<line fill="#FAFAFA" stroke="#232424" stroke-width="2" stroke-linecap="round" stroke-linejoin="round" stroke-miterlimit="10" x1="759.359" y1="-269.082" x2="843.348" y2="-326.458"/>
					<g>
						<line fill="#FAFAFA" x1="888.467" y1="-326.465" x2="912.27" y2="-269.084"/>
						<path fill="#232424" d="M912.27-268.084c-0.391,0-0.764-0.232-0.924-0.617l-23.803-57.38c-0.213-0.51,0.029-1.095,0.541-1.307
							c0.508-0.21,1.094,0.03,1.307,0.541l23.803,57.381c0.213,0.51-0.029,1.095-0.541,1.307
							C912.528-268.108,912.399-268.084,912.27-268.084z"/>
					</g>
				</g>
				
					<text id="XMLID_8_" transform="matrix(0.9549 0 0 1 841.1724 -208.8008)" fill="#895121" font-family="'Montserrat-Bold'" font-size="22.3826"> DELIVERY</text>
				<rect x="963.366" y="-367.642" fill="#4A4B68" width="22.41" height="21.44"/>
				<rect x="969.838" y="-367.642" fill="#595B7B" width="8.84" height="21.44"/>
				<path fill="#7374A0" d="M800.196-367.642v20.59h-10.351c-2.62,0-4.761-2.14-4.761-4.79v-11.01c0-2.64,2.141-4.79,4.761-4.79
					H800.196z"/>
				<path fill="#AFB6DA" d="M793.095-367.642v20.59h-3.25c-2.62,0-4.761-2.14-4.761-4.79v-11.01c0-2.64,2.141-4.79,4.761-4.79
					H793.095z"/>
				<path fill="#4A4B68" d="M958.905-367.642v21.44h-6.51c-1.641,0-3.109-0.8-4.01-2.04c-0.619-0.83-0.98-1.86-0.98-2.98
					l-3.289,0.35v-9.12l3.289-0.35v-2.28c0-1.12,0.361-2.15,0.98-2.98c0.91-1.24,2.369-2.04,4.01-2.04H958.905z"/>
				<path fill="#595B7B" d="M954.215-367.642v21.44h-1.82c-1.641,0-3.109-0.8-4.01-2.04v-17.36c0.91-1.24,2.369-2.04,4.01-2.04
					H954.215z"/>
				<path fill="#383C55" d="M830.196-361.412v12.87c-1.891-0.66-3.851-1.18-5.841-1.56l-1.069-0.2c0,0.25-0.03,0.5-0.09,0.74v-14
					c0.06,0.3,0.09,0.62,0.09,0.94L830.196-361.412z"/>
				
					<ellipse transform="matrix(0.9606 0.2778 -0.2778 0.9606 -69.6824 -258.9902)" fill="#FAFAFA" cx="879.219" cy="-375.427" rx="3.525" ry="1.23"/>
				<circle fill="#FAFAFA" cx="886.017" cy="-367.642" r="1.308"/>
				<ellipse fill="#26293D" cx="887.359" cy="-355.533" rx="3.243" ry="4.829"/>
				<ellipse fill="#B33828" cx="888.466" cy="-355.533" rx="2.196" ry="3.269"/>
				
					<ellipse transform="matrix(0.9502 -0.3116 0.3116 0.9502 155.4665 259.2699)" fill="#EA866F" cx="889.159" cy="-356.921" rx="0.693" ry="1.031"/>
				<path fill="#7374A0" d="M757.045-351.182v9.24l-10.381-0.16v-10.48c0.221,0.56,0.341,1.18,0.341,1.82v0.89L757.045-351.182z"/>
				<path fill="#9B9FC7" d="M723.505-355.781v18.7h-5.07c-2.76,0-4.989-2.24-4.989-5.02v-8.66c0-2.78,2.229-5.02,4.989-5.02H723.505
					z"/>
				<path fill="#BBC0DE" d="M718.032-355.741c-2.566,0.209-4.586,2.338-4.586,4.979v8.66c0,2.641,2.02,4.771,4.586,4.979V-355.741z"
					/>
				<polygon fill="#D69057" points="797.834,-244.032 797.834,-186.341 797.805,-187.362 789.084,-191.721 757.045,-211.402 
					757.045,-269.082 789.084,-249.402 797.805,-244.051 				"/>
				<polygon fill="#C3CBE6" points="763.803,-269.082 761.553,-266.191 761.279,-208.801 757.045,-211.402 757.045,-269.082 				"/>
				<polygon fill="#BBC0DE" points="797.805,-244.051 797.805,-186.362 789.084,-191.721 789.084,-249.402 				"/>
				<path fill="#4A4B68" d="M760.91-268.236h-1.618c-0.664,0-1.207-0.542-1.207-1.206l0,0c0-0.663,0.543-1.206,1.207-1.206h1.618
					c0.663,0,1.206,0.542,1.206,1.206l0,0C762.116-268.778,761.573-268.236,760.91-268.236z"/>
			</g>
		</g>
		<ellipse fill="#C2D7D6" cx="880.125" cy="-108.899" rx="21.048" ry="8.033"/>
	</g>
</g>
<rect x="-296.779" y="43.462" fill="#F5B00E" width="28.5" height="32.503"/>
<rect x="-296.779" y="90.962" fill="#005799" width="26" height="29"/>
<g>
	<path fill="#46636C" d="M99.981,231.472L99.981,231.472c-1.803,0-3.26,1.458-3.26,3.258v16.477h6.52v-16.477
		C103.241,232.93,101.779,231.472,99.981,231.472z"/>
	<path fill="#46636C" d="M99.981,231.472L99.981,231.472c-1.803,0-3.26,1.458-3.26,3.258v16.477h6.52v-16.477
		C103.241,232.93,101.779,231.472,99.981,231.472z"/>
	<path fill="#46636C" d="M230.375,231.472L230.375,231.472c1.802,0,3.26,1.458,3.26,3.258v16.477h-6.52v-16.477
		C227.114,232.93,228.576,231.472,230.375,231.472z"/>
	<path fill="#005799" d="M233.634,251.206h-36.347c-3.825,0-7.46-1.68-9.935-4.596l-5.226-6.148
		c-2.475-2.915-6.11-4.594-9.935-4.594h-14.027c-3.825,0-7.459,1.679-9.935,4.594l-5.226,6.148c-2.475,2.916-6.11,4.596-9.935,4.596
		H96.721c-3.602,0-6.521,2.919-6.521,6.52v0.006c0,3.566,2.889,6.455,6.457,6.455h17.278c1.518,0,2.988,0.531,4.157,1.499
		l11.233,9.299h3.255l9.172,13.753c2.415,3.627,6.485,5.807,10.845,5.807h12.579h12.583c4.359,0,8.43-2.18,10.845-5.807
		l9.172-13.753h3.256l11.233-9.299c1.168-0.968,2.639-1.499,4.157-1.499h17.278c3.566,0,6.456-2.889,6.456-6.455v-0.006
		C240.154,254.125,237.235,251.206,233.634,251.206z"/>
	<polygon fill="#F5BB24" points="97.938,235.815 99.981,238.112 90.295,242.335 67.381,239.075 67.381,235.815 	"/>
	<polygon fill="#F5BB24" points="102.025,235.815 99.981,233.52 109.667,229.296 132.581,232.556 132.581,235.815 	"/>
	<polygon fill="#F5BB24" points="228.331,235.815 230.375,238.112 220.689,242.335 197.775,239.075 197.775,235.815 	"/>
	<polygon fill="#F5BB24" points="232.418,235.815 230.375,233.52 240.059,229.296 262.974,232.556 262.974,235.815 	"/>
</g>
<g>
	<g>
		<g>
			<line fill="#005799" x1="426.853" y1="252.38" x2="370.927" y2="262.136"/>
		</g>
		<g>
			<line fill="#005799" x1="426.853" y1="247.501" x2="370.927" y2="257.258"/>
		</g>
		<g>
			<path fill="#005799" d="M427.259,261.21L427.259,261.21c-1.348,0-2.439-1.092-2.439-2.438V244.14
				c0-1.348,1.092-2.439,2.439-2.439l0,0c1.346,0,2.438,1.092,2.438,2.439v14.633C429.697,260.118,428.605,261.21,427.259,261.21z"
				/>
			<g>
				<g>
					<line fill="#005799" x1="427.259" y1="241.091" x2="419.779" y2="241.091"/>
				</g>
				<line fill="#005799" x1="427.259" y1="241.091" x2="419.779" y2="241.091"/>
				<path fill="#005799" d="M419.777,239.394h-20.242c-1.393,0-2.521,1.128-2.521,2.521l0,0c0,1.392,1.129,2.521,2.521,2.521h12.6
					c1.648,0,1.68-1.68,1.68-1.68h5.963c0.93,0,1.682-0.753,1.682-1.682l0,0C421.458,240.146,420.707,239.394,419.777,239.394z"/>
			</g>
			<g>
				<g>
					<line fill="#005799" x1="427.259" y1="241.091" x2="434.738" y2="241.091"/>
				</g>
				<line fill="#005799" x1="427.259" y1="241.091" x2="434.738" y2="241.091"/>
				<path fill="#005799" d="M434.738,242.789h20.244c1.393,0,2.521-1.128,2.521-2.521l0,0c0-1.393-1.129-2.521-2.521-2.521h-12.6
					c-1.648,0-1.682,1.681-1.682,1.681h-5.963c-0.928,0-1.68,0.753-1.68,1.681l0,0C433.058,242.037,433.81,242.789,434.738,242.789z
					"/>
			</g>
			<path fill="#005799" d="M426.039,243.53h2.439v-2.439c0-0.674-0.547-1.219-1.219-1.219l0,0c-0.674,0-1.221,0.545-1.221,1.219
				V243.53z"/>
		</g>
	</g>
	<g>
		<g>
			<line fill="#005799" x1="317.444" y1="252.38" x2="373.369" y2="262.136"/>
		</g>
		<g>
			<line fill="#005799" x1="317.444" y1="247.501" x2="373.369" y2="257.258"/>
		</g>
		<g>
			<path fill="#005799" d="M317.038,261.21L317.038,261.21c1.346,0,2.438-1.092,2.438-2.438V244.14c0-1.348-1.092-2.439-2.438-2.439
				l0,0c-1.348,0-2.439,1.092-2.439,2.439v14.633C314.598,260.118,315.69,261.21,317.038,261.21z"/>
			<g>
				<g>
					<line fill="#005799" x1="317.038" y1="241.091" x2="324.518" y2="241.091"/>
				</g>
				<line fill="#005799" x1="317.038" y1="241.091" x2="324.518" y2="241.091"/>
				<path fill="#005799" d="M324.518,239.394h20.243c1.393,0,2.521,1.128,2.521,2.521l0,0c0,1.392-1.129,2.521-2.521,2.521h-12.601
					c-1.646,0-1.68-1.68-1.68-1.68h-5.963c-0.928,0-1.682-0.753-1.682-1.682l0,0C322.836,240.146,323.59,239.394,324.518,239.394z"
					/>
			</g>
			<g>
				<g>
					<line fill="#005799" x1="317.038" y1="241.091" x2="309.557" y2="241.091"/>
				</g>
				<line fill="#005799" x1="317.038" y1="241.091" x2="309.557" y2="241.091"/>
				<path fill="#005799" d="M309.557,242.789h-20.244c-1.393,0-2.521-1.128-2.521-2.521l0,0c0-1.393,1.129-2.521,2.521-2.521h12.6
					c1.648,0,1.682,1.681,1.682,1.681h5.963c0.928,0,1.68,0.753,1.68,1.681l0,0C311.237,242.037,310.485,242.789,309.557,242.789z"
					/>
			</g>
			<path fill="#005799" d="M318.256,243.53h-2.439v-2.439c0-0.674,0.547-1.219,1.221-1.219l0,0c0.674,0,1.219,0.545,1.219,1.219
				V243.53z"/>
		</g>
	</g>
	<g>
		<g>
			<line fill="#005799" x1="305.249" y1="276.771" x2="373.369" y2="267.015"/>
		</g>
		<g>
			<line fill="#005799" x1="305.249" y1="281.649" x2="373.369" y2="271.894"/>
		</g>
		<g>
			<path fill="#005799" d="M304.842,286.525L304.842,286.525c-1.348,0-2.439-1.092-2.439-2.438v-14.633
				c0-1.347,1.092-2.438,2.439-2.438l0,0c1.348,0,2.439,1.092,2.439,2.438v14.633C307.282,285.434,306.19,286.525,304.842,286.525z"
				/>
			<g>
				<g>
					<line fill="#005799" x1="304.842" y1="266.405" x2="297.362" y2="266.405"/>
				</g>
				<line fill="#005799" x1="304.842" y1="266.405" x2="297.362" y2="266.405"/>
				<path fill="#005799" d="M297.362,264.708h-20.244c-1.393,0-2.521,1.129-2.521,2.521l0,0c0,1.392,1.129,2.521,2.521,2.521h12.6
					c1.648,0,1.682-1.681,1.682-1.681h5.963c0.928,0,1.682-0.753,1.682-1.682l0,0C299.043,265.46,298.29,264.708,297.362,264.708z"
					/>
			</g>
			<g>
				<g>
					<line fill="#005799" x1="304.842" y1="266.405" x2="312.323" y2="266.405"/>
				</g>
				<line fill="#005799" x1="304.842" y1="266.405" x2="312.323" y2="266.405"/>
				<path fill="#005799" d="M312.323,268.104h20.244c1.393,0,2.521-1.129,2.521-2.521l0,0c0-1.393-1.129-2.521-2.521-2.521h-12.6
					c-1.648,0-1.682,1.682-1.682,1.682h-5.963c-0.928,0-1.68,0.752-1.68,1.68l0,0C310.643,267.352,311.395,268.104,312.323,268.104z
					"/>
			</g>
			<path fill="#005799" d="M303.624,268.845h2.438v-2.439c0-0.673-0.545-1.219-1.219-1.219l0,0c-0.674,0-1.219,0.546-1.219,1.219
				V268.845z"/>
		</g>
	</g>
	<g>
		<g>
			<line fill="#005799" x1="439.046" y1="276.771" x2="370.927" y2="267.015"/>
		</g>
		<g>
			<line fill="#005799" x1="439.046" y1="281.649" x2="370.927" y2="271.894"/>
		</g>
		<g>
			<path fill="#005799" d="M439.453,286.525L439.453,286.525c1.348,0,2.439-1.092,2.439-2.438v-14.633
				c0-1.347-1.092-2.438-2.439-2.438l0,0c-1.346,0-2.438,1.092-2.438,2.438v14.633C437.015,285.434,438.107,286.525,439.453,286.525
				z"/>
			<g>
				<g>
					<line fill="#005799" x1="439.453" y1="266.405" x2="446.933" y2="266.405"/>
				</g>
				<line fill="#005799" x1="439.453" y1="266.405" x2="446.933" y2="266.405"/>
				<path fill="#005799" d="M446.933,264.708h20.244c1.393,0,2.521,1.129,2.521,2.521l0,0c0,1.392-1.129,2.521-2.521,2.521h-12.6
					c-1.648,0-1.682-1.681-1.682-1.681h-5.963c-0.928,0-1.68-0.753-1.68-1.682l0,0C445.253,265.46,446.005,264.708,446.933,264.708z
					"/>
			</g>
			<g>
				<g>
					<line fill="#005799" x1="439.453" y1="266.405" x2="431.972" y2="266.405"/>
				</g>
				<line fill="#005799" x1="439.453" y1="266.405" x2="431.972" y2="266.405"/>
				<path fill="#005799" d="M431.972,268.104h-20.244c-1.391,0-2.52-1.129-2.52-2.521l0,0c0-1.393,1.129-2.521,2.52-2.521h12.602
					c1.646,0,1.68,1.682,1.68,1.682h5.963c0.928,0,1.682,0.752,1.682,1.68l0,0C433.654,267.352,432.9,268.104,431.972,268.104z"/>
			</g>
			<path fill="#005799" d="M440.673,268.845h-2.439v-2.439c0-0.673,0.545-1.219,1.219-1.219l0,0c0.674,0,1.221,0.546,1.221,1.219
				V268.845z"/>
		</g>
	</g>
	<g>
		<path fill="#005799" d="M364.832,252.379h14.633c2.693,0,4.877,2.184,4.877,4.878v14.632c0,2.694-2.184,4.878-4.877,4.878h-14.633
			c-2.693,0-4.877-2.184-4.877-4.878v-14.632C359.955,254.563,362.138,252.379,364.832,252.379z"/>
		<g>
			<circle fill="#F5B00E" cx="372.148" cy="264.573" r="7.316"/>
			<circle fill="#F5B00E" cx="372.148" cy="264.573" r="3.658"/>
			<path fill="#F5B00E" d="M372.148,260c2.525,0,4.572,2.048,4.572,4.573h1.525c0-3.367-2.73-6.098-6.098-6.098
				s-6.098,2.73-6.098,6.098h1.525C367.576,262.048,369.623,260,372.148,260z"/>
		</g>
	</g>
</g>
<g>
	<text id="XMLID_21_" transform="matrix(1 0 0 1 158.4346 -50.7363)"><tspan x="0" y="0" fill="#F5B00E" font-family="'Calibri'" font-size="22">CAMPUS</tspan><tspan x="-0.421" y="22" fill="#F5B00E" font-family="'Calibri-Bold'" font-size="26">FINDER</tspan></text>
	<g>
		<path fill="#005799" d="M191.256-95.34c3.003,0.886,4.193,5.819,2.664,11.019c-1.532,5.203-5.209,8.704-8.212,7.819
			c-3.006-0.884-4.196-5.82-2.664-11.022C184.573-92.723,188.249-96.224,191.256-95.34z"/>
		<g>
			<path fill="#005799" d="M178.662-194.286c0.104-0.059,0.208-0.114,0.312-0.171C178.873-194.399,178.763-194.345,178.662-194.286z
				"/>
			<path fill="#005799" d="M180.061-195.003c-0.084,0.034-0.146,0.078-0.228,0.114c0.163-0.077,0.325-0.154,0.491-0.225
				C180.239-195.077,180.139-195.039,180.061-195.003z"/>
			<path fill="#005799" d="M197.521-197.925c-4.305-1.445-13.049,1.13-16.934,2.704c3.481-1.391,7.515-1.491,11.868-0.029
				c14.1,4.752,33.412,20.292,28.431,46.085c-3.588,18.686-24.394,46.841-27.295,46.07c0.556,0.491,5.313-1.417,5.771-1.572
				c4.844-1.626,23.707-27.384,27.295-46.068C231.633-176.53,211.621-193.173,197.521-197.925z"/>
			<path fill="#005799" d="M203.918-139.076c-1.084-0.058-2.223-0.273-3.416-0.675c-9.227-3.121-17.109-15.742-17.62-28.225
				c-0.293-7.63,2.238-13.417,6.359-16.063c-7.355-0.219-12.545,6.885-12.128,17.633c0.511,12.483,8.391,25.104,17.62,28.225
				C198.321-136.972,201.422-137.396,203.918-139.076z"/>
			<path fill="#005799" d="M220.887-149.165c4.981-25.794-14.331-41.333-28.431-46.085c-4.354-1.461-8.387-1.361-11.868,0.029
				c-0.088,0.034-0.176,0.071-0.264,0.107c-0.166,0.07-0.328,0.147-0.491,0.225c-0.293,0.135-0.576,0.279-0.859,0.433
				c-0.104,0.057-0.208,0.112-0.312,0.171c-6.673,3.838-10.821,12.886-10.33,24.921c0.749,19.051,18.274,64.435,25.26,66.269
				C196.493-102.324,217.299-130.479,220.887-149.165z M194.733-138.179c-9.229-3.121-17.109-15.742-17.62-28.225
				c-0.417-10.749,4.772-17.852,12.128-17.633c1.185,0.034,2.418,0.241,3.699,0.671c9.227,3.102,18.232,12.988,17.614,28.224
				c-0.313,7.631-2.71,13.42-6.637,16.067C201.422-137.396,198.321-136.972,194.733-138.179z"/>
		</g>
	</g>
</g>
<g>
	<text id="XMLID_27_" transform="matrix(1 0 0 1 158.0313 144.9971)"><tspan x="0" y="0" fill="#005799" font-family="'Calibri'" font-size="22">CAMPUS</tspan><tspan x="-0.421" y="22" fill="#F5B00E" font-family="'Calibri-Bold'" font-size="26">FINDER</tspan></text>
	<g>
		
			<ellipse transform="matrix(0.2825 -0.9593 0.9593 0.2825 29.6046 259.2075)" fill="#F5B00E" cx="188.079" cy="109.813" rx="9.819" ry="5.668"/>
		<g>
			<path fill="#005799" d="M178.259,1.448c0.104-0.059,0.208-0.114,0.312-0.171C178.47,1.335,178.359,1.389,178.259,1.448z"/>
			<path fill="#005799" d="M179.657,0.731c-0.084,0.034-0.146,0.078-0.228,0.114c0.163-0.077,0.325-0.154,0.491-0.225
				C179.836,0.657,179.735,0.695,179.657,0.731z"/>
			<path fill="#005799" d="M197.118-2.191c-4.305-1.445-13.049,1.13-16.934,2.704c3.481-1.391,7.515-1.491,11.868-0.029
				c14.1,4.752,33.412,20.292,28.431,46.085c-3.588,18.685-24.394,46.841-27.295,46.07c0.556,0.491,5.313-1.418,5.771-1.572
				c4.844-1.625,23.707-27.383,27.295-46.068C231.229,19.204,211.218,2.561,197.118-2.191z"/>
			<path fill="#005799" d="M203.515,56.658c-1.084-0.058-2.223-0.273-3.416-0.675c-9.227-3.121-17.109-15.742-17.62-28.225
				c-0.293-7.63,2.238-13.417,6.359-16.063c-7.355-0.219-12.545,6.885-12.128,17.633c0.511,12.483,8.391,25.104,17.62,28.225
				C197.918,58.762,201.019,58.338,203.515,56.658z"/>
			<path fill="#005799" d="M220.483,46.569c4.981-25.794-14.331-41.333-28.431-46.085c-4.354-1.461-8.387-1.361-11.868,0.029
				c-0.088,0.034-0.176,0.071-0.264,0.107c-0.166,0.07-0.328,0.147-0.491,0.225c-0.293,0.135-0.576,0.279-0.859,0.433
				c-0.104,0.057-0.208,0.112-0.312,0.171c-6.673,3.838-10.821,12.886-10.33,24.921c0.749,19.051,18.274,64.435,25.26,66.269
				C196.09,93.41,216.896,65.254,220.483,46.569z M194.33,57.555c-9.229-3.121-17.109-15.742-17.62-28.225
				c-0.417-10.749,4.772-17.852,12.128-17.633c1.185,0.034,2.418,0.241,3.699,0.671c9.227,3.102,18.232,12.988,17.614,28.224
				c-0.313,7.631-2.71,13.421-6.637,16.067C201.019,58.338,197.918,58.762,194.33,57.555z"/>
		</g>
	</g>
</g>
</svg>
